<?xml version="1.0" standalone="no"?>
<!DOCTYPE svg PUBLIC "-//W3C//DTD SVG 20010904//EN"
 "http://www.w3.org/TR/2001/REC-SVG-20010904/DTD/svg10.dtd">
<svg version="1.0" xmlns="http://www.w3.org/2000/svg"
 width="225.000000pt" height="225.000000pt" viewBox="0 0 225.000000 225.000000"
 preserveAspectRatio="xMidYMid meet">
<metadata>
Created by potrace 1.14, written by Peter Selinger 2001-2017
</metadata>
<g transform="translate(0.000000,225.000000) scale(0.100000,-0.100000)"
fill="#000000" stroke="none">
<path d="M901 2225 c-451 -101 -784 -436 -875 -878 -21 -100 -21 -346 -1 -442
46 -215 140 -396 287 -550 191 -202 432 -319 709 -345 578 -55 1105 347 1209
920 15 83 15 308 0 390 -53 290 -232 569 -470 730 -84 57 -228 124 -335 156
-81 24 -109 27 -275 30 -135 3 -202 0 -249 -11z m375 -196 c328 -58 603 -289
712 -599 128 -365 10 -781 -291 -1019 -70 -56 -242 -150 -253 -138 -4 4 -11
60 -15 125 -13 177 -17 198 -53 244 l-32 43 85 17 c174 35 313 137 360 263 63
168 43 327 -58 459 l-39 51 -6 135 c-4 74 -11 139 -16 143 -13 14 -129 -21
-211 -65 -76 -40 -78 -41 -126 -28 -82 21 -248 24 -350 6 l-91 -16 -89 45
c-93 48 -179 71 -200 53 -30 -24 -45 -185 -23 -242 8 -23 4 -31 -39 -74 -99
-99 -131 -204 -101 -333 50 -214 200 -347 450 -399 l85 -17 -32 -16 c-17 -9
-35 -29 -41 -45 -11 -33 -62 -52 -133 -52 -60 1 -106 28 -154 91 -53 69 -97
99 -146 99 -22 0 -39 -4 -39 -9 0 -5 20 -25 45 -46 30 -24 58 -60 79 -103 62
-123 118 -156 255 -150 l81 3 0 -107 c0 -60 -2 -108 -3 -108 -18 0 -132 47
-196 80 -150 78 -293 221 -371 371 -86 165 -116 301 -107 482 9 176 55 316
151 462 131 196 350 342 586 390 80 16 246 19 326 4z"/>
</g>
</svg>
